<svg width="121" height="22" viewBox="0 0 121 22" fill="none" xmlns="http://www.w3.org/2000/svg">
  <g clip-path="url(#clip0_5386_94)">
    <path d="M28.7235 16.8095H31.4772V5.15967H28.7235V9.64716H23.7447V5.15967H20.991V16.8095H23.7447V12.5307V12.3081L28.7235 12.322V12.5307V16.8095Z" fill="#191919" />
    <path d="M7.68158 12.155L2.47554 4.86279L0 6.14692V16.8186H2.69342V9.79069L8.14517 17.1988H8.15444L10.4028 16.0166V5.16876H7.68158V12.155Z" fill="#191919" />
    <path d="M44.7591 9.79069L50.2108 17.1988H50.2247L52.4685 16.0166V5.16876H49.7473V12.155L44.5458 4.86279L42.0657 6.14692V16.8186H44.7591V9.79069Z" fill="#191919" />
    <path d="M67.8222 0.55127V8.39974L74.7759 0.55127H81.09L72.7779 9.87857L81.3542 21.4079H75.0958L69.5653 13.527L67.8268 15.4694V21.4079H62.9036V0.55127H67.8268H67.8222Z" fill="#191919" />
    <path d="M83.6583 18.2511C82.008 16.3411 81.053 13.8192 81.053 10.9821C81.053 7.59326 82.3835 4.69586 84.6458 2.69782C86.616 0.987192 89.2538 0.00439453 92.2346 0.00439453C94.177 0.00439453 95.883 0.352082 97.2738 0.987192C98.4605 1.53886 99.7354 2.49384 100.806 3.82432L97.2135 6.83762C96.4625 6.08661 95.7069 5.53495 94.8075 5.18726C94.0565 4.89984 93.2128 4.72368 92.3459 4.72368C90.5194 4.72368 89.2445 5.24289 88.1458 6.14224C86.7829 7.27339 85.9716 8.95156 85.9716 10.9774C85.9716 12.7159 86.5511 14.2781 87.5941 15.3815C88.7253 16.5961 90.4313 17.2358 92.3459 17.2358C93.3287 17.2358 94.2558 17.0318 95.0115 16.6841C95.9665 16.2808 96.7777 15.6411 97.5009 14.7417L101.122 17.463C100.167 18.8537 99.0957 19.9246 97.7605 20.6802C96.2817 21.5193 94.4876 21.9551 92.23 21.9551C88.6975 21.9551 85.6842 20.5365 83.6537 18.2464L83.6583 18.2511Z" fill="#191919" />
    <path d="M103.444 0.55127H113.119C114.19 0.55127 115.58 0.727431 116.48 1.10293C117.667 1.59433 118.622 2.31752 119.377 3.24469C120.42 4.57518 121 6.25799 121 8.07987C121 9.29446 120.74 10.4534 120.277 11.4965C119.609 12.9429 118.51 14.1621 117.031 14.8575C115.933 15.3767 114.394 15.6687 113.119 15.6687H108.367V21.4033H103.444V0.55127ZM112.716 11.0653C113.582 11.0653 114.222 10.8614 114.598 10.6898C115.696 10.1706 115.961 9.12757 115.961 8.08451C115.961 6.95336 115.585 6.02619 114.366 5.50698C113.963 5.33545 113.235 5.21956 112.456 5.21956H108.372V11.07H112.716V11.0653Z" fill="#191919" />
  </g>
  <defs>
    <clipPath id="clip0_5386_94">
      <rect width="121" height="21.9553" fill="white" />
    </clipPath>
  </defs>
</svg>